<?xml version="1.0" encoding="UTF-8"?>
<svg width="71.812" height="66.366" version="1.1" viewBox="0 0 19 17.559" xmlns="http://www.w3.org/2000/svg"><g transform="translate(1.0023 .059445)"><rect x="1.3416" y="2.2845" width="14.313" height="12.872" fill="#fff" stroke="#fff" stroke-width="1.7407" style="paint-order:stroke fill markers"/><path d="m15.654 2.2845v12.872" fill="none" stroke="#000" stroke-width="1.523"/><path d="m1.3416 15.156 2e-7 -12.872" fill="none" stroke="#000" stroke-width="1.523"/></g><g transform="translate(1.0023 .059445)" display="none"><path d="m1.3416 15.156c2e-7 -12.872 14.313-12.872 14.313-1e-6" fill="none" stroke="#000" stroke-width="2.158"/><g transform="matrix(1.25 0 0 1.25 -4.0832 -1.1809)" shape-rendering="auto" stroke="#fdfdfd" stroke-linejoin="bevel" stroke-width=".4" style="paint-order:markers stroke fill"><path d="m4.3398 0.94727c-0.99373 0-1.8242 0.83049-1.8242 1.8242 0 0.99373 0.83049 1.8262 1.8242 1.8262 0.99373 0 1.8242-0.83244 1.8242-1.8262 0-0.99373-0.83049-1.8242-1.8242-1.8242zm0 1.3086c0.27085 0 0.51562 0.24477 0.51562 0.51562 0 0.27085-0.24477 0.51562-0.51562 0.51562-0.27085 0-0.51563-0.24477-0.51562-0.51562 0-0.27085 0.24477-0.51562 0.51562-0.51562z" color="#000000" color-rendering="auto" display="inline" dominant-baseline="auto" image-rendering="auto" solid-color="#000000" stop-color="#000000" style="font-feature-settings:normal;font-variant-alternates:normal;font-variant-caps:normal;font-variant-east-asian:normal;font-variant-ligatures:normal;font-variant-numeric:normal;font-variant-position:normal;font-variation-settings:normal;inline-size:0;isolation:auto;mix-blend-mode:normal;paint-order:markers stroke fill;shape-margin:0;shape-padding:0;text-decoration-color:#000000;text-decoration-line:none;text-decoration-style:solid;text-indent:0;text-orientation:mixed;text-transform:none;white-space:normal"/><path d="m4.9943 2.7723c0 0.36144-0.29301 0.65445-0.65445 0.65445-0.36144 0-0.65445-0.29301-0.65445-0.65445s0.29301-0.65445 0.65445-0.65445c0.36144 0 0.65445 0.29301 0.65445 0.65445z" color="#000000" color-rendering="auto" display="inline" dominant-baseline="auto" fill="#fff" image-rendering="auto" solid-color="#000000" stop-color="#000000" style="font-feature-settings:normal;font-variant-alternates:normal;font-variant-caps:normal;font-variant-east-asian:normal;font-variant-ligatures:normal;font-variant-numeric:normal;font-variant-position:normal;font-variation-settings:normal;inline-size:0;isolation:auto;mix-blend-mode:normal;paint-order:markers stroke fill;shape-margin:0;shape-padding:0;text-decoration-color:#000000;text-decoration-line:none;text-decoration-style:solid;text-indent:0;text-orientation:mixed;text-transform:none;white-space:normal"/></g><g transform="matrix(1.25 0 0 1.25 -7.6613 -1.1809)" shape-rendering="auto" stroke="#fdfdfd" stroke-linejoin="bevel" stroke-width=".4" style="paint-order:markers stroke fill"><path d="m18.652 0.94727c-0.99378 1e-8 -1.8242 0.83044-1.8242 1.8242 0 0.99378 0.83044 1.8262 1.8242 1.8262 0.99378 0 1.8242-0.83239 1.8242-1.8262 1e-6 -0.99378-0.83044-1.8242-1.8242-1.8242zm0 1.3086c0.27086 0 0.51562 0.24476 0.51562 0.51562s-0.24476 0.51562-0.51562 0.51562-0.51562-0.24476-0.51562-0.51562 0.24476-0.51562 0.51562-0.51562z" color="#000000" color-rendering="auto" display="inline" dominant-baseline="auto" image-rendering="auto" solid-color="#000000" stop-color="#000000" style="font-feature-settings:normal;font-variant-alternates:normal;font-variant-caps:normal;font-variant-east-asian:normal;font-variant-ligatures:normal;font-variant-numeric:normal;font-variant-position:normal;font-variation-settings:normal;inline-size:0;isolation:auto;mix-blend-mode:normal;paint-order:markers stroke fill;shape-margin:0;shape-padding:0;text-decoration-color:#000000;text-decoration-line:none;text-decoration-style:solid;text-indent:0;text-orientation:mixed;text-transform:none;white-space:normal"/><path d="m19.307 2.7723c0 0.36146-0.29302 0.65448-0.65448 0.65448-0.36146 0-0.65448-0.29302-0.65448-0.65448 0-0.36146 0.29302-0.65448 0.65448-0.65448 0.36146 0 0.65448 0.29302 0.65448 0.65448z" color="#000000" color-rendering="auto" display="inline" dominant-baseline="auto" fill="#fff" image-rendering="auto" solid-color="#000000" stop-color="#000000" style="font-feature-settings:normal;font-variant-alternates:normal;font-variant-caps:normal;font-variant-east-asian:normal;font-variant-ligatures:normal;font-variant-numeric:normal;font-variant-position:normal;font-variation-settings:normal;inline-size:0;isolation:auto;mix-blend-mode:normal;paint-order:markers stroke fill;shape-margin:0;shape-padding:0;text-decoration-color:#000000;text-decoration-line:none;text-decoration-style:solid;text-indent:0;text-orientation:mixed;text-transform:none;white-space:normal"/></g><ellipse transform="translate(-2.9982 -.48783)" cx="4.3398" cy="2.7723" rx=".65445" ry=".65445" display="inline" fill="#fff" stroke="#000" stroke-linejoin="bevel" stroke-width="2.3399" style="paint-order:stroke fill markers"/><ellipse transform="translate(-2.9982 -.48783)" cx="18.652" cy="2.7723" rx=".65448" ry=".65448" display="inline" fill="#fff" stroke="#000" stroke-linejoin="bevel" stroke-width="2.34" style="paint-order:stroke fill markers"/></g><g transform="translate(1.0023 .059445)"><g><rect x="14.773" y="1.403" width="1.7629" height="1.7629" fill="#fff" stroke="#000" stroke-width="2.9249" style="paint-order:stroke fill markers"/><rect x=".46017" y="1.403" width="1.7629" height="1.7629" fill="#fff" stroke="#000" stroke-width="2.9249" style="paint-order:stroke fill markers"/><path d="m8.498 2.0391c-1.9454 1.54e-5 -3.9093 0.56247-5.2949 1.8086-1.3856 1.2461-2.0232 3.0493-2.3359 5.0176-0.3127 1.9683-0.30859 4.1459-0.30859 6.291h1.5664c3e-7 -2.1451 0.0034-4.2591 0.28711-6.0449 0.28371-1.7858 0.83793-3.2003 1.8379-4.0996 0.99997-0.89929 2.6154-1.4082 4.248-1.4082 1.6327-1.29e-5 3.2483 0.50895 4.248 1.4082 0.99982 0.89927 1.5542 2.3138 1.8379 4.0996 0.28367 1.7859 0.28711 3.8998 0.28711 6.0449h1.5664c2e-6 -2.1451 0.0041-4.3227-0.30859-6.291-0.31265-1.9683-0.95046-3.7714-2.3359-5.0176-1.3855-1.2462-3.3495-1.8086-5.2949-1.8086z" color="#000000" color-rendering="auto" dominant-baseline="auto" image-rendering="auto" shape-rendering="auto" solid-color="#000000" stop-color="#000000" stroke="#fff" style="font-feature-settings:normal;font-variant-alternates:normal;font-variant-caps:normal;font-variant-east-asian:normal;font-variant-ligatures:normal;font-variant-numeric:normal;font-variant-position:normal;font-variation-settings:normal;inline-size:0;isolation:auto;mix-blend-mode:normal;paint-order:markers stroke fill;shape-margin:0;shape-padding:0;text-decoration-color:#000000;text-decoration-line:none;text-decoration-style:solid;text-indent:0;text-orientation:mixed;text-transform:none;white-space:normal"/></g><g stroke="#000"><g stroke-width=".558" style="font-variant-caps:normal;font-variant-east-asian:normal;font-variant-ligatures:normal;font-variant-numeric:normal" aria-label="b"><g shape-rendering="auto" stroke="none"><path d="m9.612 8.5581c-0.51539 0-1.0308 0.22906-1.4603 0.57265-0.24338 0.18611-0.44381 0.38654-0.62992 0.64423l1.5605-4.9248-2.3192 0.042949-0.10021 0.34359c0.5297 0 1.0737-0.042949 1.0737 0.47244 0 0.12885-0.028633 0.28633-0.10021 0.48675l-1.7752 5.5261c-0.22906 0.7015-0.35791 1.3028-0.35791 1.7895 0 1.1739 0.68718 1.7466 1.9041 1.7466 2.0186 0 4.0229-2.0329 4.0229-4.4953 0-1.3887-0.73013-2.2047-1.8182-2.2047zm-2.2047 6.3851c-0.55834 0-0.94488-0.42949-0.94488-1.1883 0-0.48675 0.085898-1.1167 0.34359-1.8611l0.27201-0.75876c0.41517-1.131 1.4603-2.1761 2.2333-2.1761 0.6156 0 1.0308 0.45812 1.0308 1.5605 0 1.9184-1.4459 4.4237-2.9348 4.4237z" color="#000000" color-rendering="auto" dominant-baseline="auto" image-rendering="auto" solid-color="#000000" stop-color="#000000" style="font-feature-settings:normal;font-variant-alternates:normal;font-variant-caps:normal;font-variant-east-asian:normal;font-variant-ligatures:normal;font-variant-numeric:normal;font-variant-position:normal;font-variation-settings:normal;inline-size:0;isolation:auto;mix-blend-mode:normal;shape-margin:0;shape-padding:0;text-decoration-color:#000000;text-decoration-line:none;text-decoration-style:solid;text-indent:0;text-orientation:mixed;text-transform:none;white-space:normal"/><path d="m9.4648 4.5645-2.9121 0.052734-0.26172 0.89844h0.37109c0.27239 0 0.52994-0.0024 0.66406 0.033203 0.067059 0.017803 0.094334 0.037924 0.10547 0.050781 0.011135 0.012857 0.025391 0.029612 0.025391 0.10938 0 0.087513-0.020046 0.21355-0.083984 0.39258l-0.00195 0.00391-1.7754 5.5312c-0.23365 0.71596-0.37109 1.3395-0.37109 1.875 0 0.64141 0.19678 1.1714 0.58789 1.5215s0.9435 0.50391 1.5957 0.50391c2.2059 0 4.3008-2.1596 4.3008-4.7734 0-0.74324-0.19546-1.365-0.56641-1.8047-0.37095-0.43972-0.91748-0.67969-1.5313-0.67969-0.55165 0-1.0626 0.25628-1.5078 0.58398zm-0.76562 0.57227-1.4434 4.5547 0.32812 0.16406c-0.29515 0.3662-0.60342 0.73641-0.76758 1.1836l-0.27344 0.76172v2e-3c-0.26734 0.77231-0.35938 1.4335-0.35938 1.9531 0 0.3833 0.1172 0.69155 0.29297 0.94727-0.077698-0.04321-0.22992-0.0313-0.29102-0.08598-0.2567-0.22976-0.4043-0.57294-0.4043-1.1055 0-0.43752 0.12166-1.017 0.3457-1.7031l1.7754-5.5273-0.00391 0.00781c0.079228-0.22183 0.11719-0.4099 0.11719-0.58008 0-0.17793-0.054687-0.35057-0.16211-0.47461-0.038348-0.044281-0.091495-0.04943-0.13672-0.080078zm1.0586 3.7656c0.38592 0.038208 0.72627 0.14442 0.95703 0.41797 0.26613 0.31546 0.43555 0.79792 0.43555 1.4434 0 1.7399-1.0831 3.2447-2.4004 3.8848 0.34004-0.2838 0.65608-0.6346 0.91797-1.0488 0.57529-0.90993 0.95313-2.0508 0.95313-3.0801 0-0.5862-0.10536-1.0336-0.33594-1.3555-0.12472-0.17412-0.3432-0.18164-0.52734-0.26172zm-0.44727 0.33594c0.23859 0 0.38862 0.067243 0.51953 0.25 0.13091 0.18276 0.23242 0.5151 0.23242 1.0312 0 0.8891-0.34532 1.9589-0.86523 2.7812-0.51991 0.82234-1.2011 1.3633-1.7891 1.3633-0.20763 0-0.35189-0.06741-0.4668-0.20703-0.11491-0.13962-0.19922-0.36917-0.19922-0.70117 0-0.45393 0.080076-1.0549 0.32812-1.7715l0.26953-0.75391v-2e-3c0.19118-0.51994 0.53711-1.0339 0.91602-1.4062 0.37927-0.37265 0.79387-0.58398 1.0547-0.58398z" color="#000000" color-rendering="auto" dominant-baseline="auto" image-rendering="auto" solid-color="#000000" stop-color="#000000" style="font-feature-settings:normal;font-variant-alternates:normal;font-variant-caps:normal;font-variant-east-asian:normal;font-variant-ligatures:normal;font-variant-numeric:normal;font-variant-position:normal;font-variation-settings:normal;inline-size:0;isolation:auto;mix-blend-mode:normal;shape-margin:0;shape-padding:0;text-decoration-color:#000000;text-decoration-line:none;text-decoration-style:solid;text-indent:0;text-orientation:mixed;text-transform:none;white-space:normal"/></g></g><rect x=".46017" y="14.275" width="1.7629" height="1.7629" fill="#fff" stroke-width="2.9249" style="paint-order:stroke fill markers"/><rect x="14.773" y="14.275" width="1.7629" height="1.7629" fill="#fff" stroke-width="2.9249" style="paint-order:stroke fill markers"/></g></g></svg>
