<?xml version="1.0" encoding="UTF-8"?>
<svg width="73.221" height="67.077" version="1.1" viewBox="0 0 19.373 17.747" xmlns="http://www.w3.org/2000/svg"><g transform="translate(1.1887 .24681)"><rect x="1.3416" y="2.2845" width="14.313" height="12.872" fill="#fff" stroke="#fff" stroke-width="1.7407" style="paint-order:stroke fill markers"/><path d="m15.654 2.2845v12.872" fill="none" stroke="#000" stroke-width="1.523"/><path d="m1.3416 15.156 2e-7 -12.872" fill="none" stroke="#000" stroke-width="1.523"/></g><path d="m9.6867 4.6706c-4.2251 2e-7 -8.2363 3.8967-8.2363 10.732h2.1582c1e-7 -6.0359 3.1469-8.5742 6.0781-8.5742 2.9312-1e-7 6.0762 2.5383 6.0762 8.5742h2.1582c0-6.8357-4.0093-10.732-8.2344-10.732z" color="#000000" color-rendering="auto" dominant-baseline="auto" image-rendering="auto" shape-rendering="auto" solid-color="#000000" stop-color="#000000" stroke="#fff" style="font-feature-settings:normal;font-variant-alternates:normal;font-variant-caps:normal;font-variant-east-asian:normal;font-variant-ligatures:normal;font-variant-numeric:normal;font-variant-position:normal;font-variation-settings:normal;inline-size:0;isolation:auto;mix-blend-mode:normal;paint-order:markers stroke fill;shape-margin:0;shape-padding:0;text-decoration-color:#000000;text-decoration-line:none;text-decoration-style:solid;text-indent:0;text-orientation:mixed;text-transform:none;white-space:normal"/><g transform="translate(1.1887 .24681)" display="none"><path d="m1.3416 15.156c2e-7 -12.872 14.313-12.872 14.313-1e-6" fill="none" stroke="#000" stroke-width="2.158"/></g><g transform="translate(1.1887 .24681)" shape-rendering="auto" stroke="#fdfdfd" stroke-linejoin="bevel" stroke-width=".4"><g transform="matrix(1.25,0,0,1.25,-4.0832,-1.1809)" style="paint-order:markers stroke fill"><path d="m4.3398 0.94727c-0.99373 0-1.8242 0.83049-1.8242 1.8242 0 0.99373 0.83049 1.8262 1.8242 1.8262 0.99373 0 1.8242-0.83244 1.8242-1.8262 0-0.99373-0.83049-1.8242-1.8242-1.8242zm0 1.3086c0.27085 0 0.51562 0.24477 0.51562 0.51562s-0.24477 0.51562-0.51562 0.51562-0.51563-0.24477-0.51562-0.51562c0-0.27085 0.24477-0.51562 0.51562-0.51562z" color="#000000" color-rendering="auto" dominant-baseline="auto" image-rendering="auto" solid-color="#000000" stop-color="#000000" style="font-feature-settings:normal;font-variant-alternates:normal;font-variant-caps:normal;font-variant-east-asian:normal;font-variant-ligatures:normal;font-variant-numeric:normal;font-variant-position:normal;font-variation-settings:normal;inline-size:0;isolation:auto;mix-blend-mode:normal;paint-order:markers stroke fill;shape-margin:0;shape-padding:0;text-decoration-color:#000000;text-decoration-line:none;text-decoration-style:solid;text-indent:0;text-orientation:mixed;text-transform:none;white-space:normal"/><path d="m4.9943 2.7723c0 0.36144-0.29301 0.65445-0.65445 0.65445s-0.65445-0.29301-0.65445-0.65445 0.29301-0.65445 0.65445-0.65445 0.65445 0.29301 0.65445 0.65445z" color="#000000" color-rendering="auto" dominant-baseline="auto" fill="#fff" image-rendering="auto" solid-color="#000000" stop-color="#000000" style="font-feature-settings:normal;font-variant-alternates:normal;font-variant-caps:normal;font-variant-east-asian:normal;font-variant-ligatures:normal;font-variant-numeric:normal;font-variant-position:normal;font-variation-settings:normal;inline-size:0;isolation:auto;mix-blend-mode:normal;paint-order:markers stroke fill;shape-margin:0;shape-padding:0;text-decoration-color:#000000;text-decoration-line:none;text-decoration-style:solid;text-indent:0;text-orientation:mixed;text-transform:none;white-space:normal"/></g><g transform="matrix(1.25,0,0,1.25,-7.6613,-1.1809)" style="paint-order:markers stroke fill"><path d="m18.652 0.94727c-0.99378 1e-8 -1.8242 0.83044-1.8242 1.8242 0 0.99378 0.83044 1.8262 1.8242 1.8262 0.99378 0 1.8242-0.83239 1.8242-1.8262 1e-6 -0.99378-0.83044-1.8242-1.8242-1.8242zm0 1.3086c0.27086 0 0.51562 0.24476 0.51562 0.51562s-0.24476 0.51562-0.51562 0.51562-0.51562-0.24476-0.51562-0.51562 0.24476-0.51562 0.51562-0.51562z" color="#000000" color-rendering="auto" dominant-baseline="auto" image-rendering="auto" solid-color="#000000" stop-color="#000000" style="font-feature-settings:normal;font-variant-alternates:normal;font-variant-caps:normal;font-variant-east-asian:normal;font-variant-ligatures:normal;font-variant-numeric:normal;font-variant-position:normal;font-variation-settings:normal;inline-size:0;isolation:auto;mix-blend-mode:normal;paint-order:markers stroke fill;shape-margin:0;shape-padding:0;text-decoration-color:#000000;text-decoration-line:none;text-decoration-style:solid;text-indent:0;text-orientation:mixed;text-transform:none;white-space:normal"/><path d="m19.307 2.7723c0 0.36146-0.29302 0.65448-0.65448 0.65448s-0.65448-0.29302-0.65448-0.65448 0.29302-0.65448 0.65448-0.65448 0.65448 0.29302 0.65448 0.65448z" color="#000000" color-rendering="auto" dominant-baseline="auto" fill="#fff" image-rendering="auto" solid-color="#000000" stop-color="#000000" style="font-feature-settings:normal;font-variant-alternates:normal;font-variant-caps:normal;font-variant-east-asian:normal;font-variant-ligatures:normal;font-variant-numeric:normal;font-variant-position:normal;font-variation-settings:normal;inline-size:0;isolation:auto;mix-blend-mode:normal;paint-order:markers stroke fill;shape-margin:0;shape-padding:0;text-decoration-color:#000000;text-decoration-line:none;text-decoration-style:solid;text-indent:0;text-orientation:mixed;text-transform:none;white-space:normal"/></g></g><g transform="translate(1.1887 .24681)" display="none" fill="#fff" stroke="#000" stroke-linejoin="bevel"><circle transform="translate(-2.9982 -.48783)" cx="4.3398" cy="2.7723" r=".65445" display="inline" stroke-width="2.3399" style="paint-order:stroke fill markers"/><circle transform="translate(-2.9982 -.48783)" cx="18.652" cy="2.7723" r=".65448" display="inline" stroke-width="2.34" style="paint-order:stroke fill markers"/></g><g transform="translate(1.1887 .24681)" fill="#fff" stroke="#000" stroke-width="2.9249"><rect x=".46017" y="14.275" width="1.7629" height="1.7629" style="paint-order:stroke fill markers"/><rect x="14.773" y="14.275" width="1.7629" height="1.7629" style="paint-order:stroke fill markers"/></g></svg>
