<?xml version="1.0" encoding="UTF-8"?>
<svg width="73.221" height="67.077" version="1.1" viewBox="0 0 19.373 17.747" xmlns="http://www.w3.org/2000/svg">
  <path d="m9.3203 4.9805c-3.3859 0.18801-6.0865 3.0365-6.9594 6.18-0.39949 1.2782-0.57584 2.5971-0.6031 3.9372 0.51856-0.05194 1.0591 0.12322 1.5605-0.06055 0.0089-2.9347 1.0059-6.1982 3.6505-7.7947 2.7225-1.6406 6.6106-0.24381 7.8838 2.6164 0.86072 1.5987 1.1648 3.4388 1.2 5.2388 0.5192-0.05238 1.0603 0.12252 1.5625-0.05859-0.038665-3.3797-1.2959-7.0127-4.2309-8.9438-1.1906-0.78576-2.639-1.1808-4.064-1.1148z" stroke="#fff" stroke-linecap="square" stroke-opacity=".49576" stroke-width=".21167" style="font-feature-settings:normal;font-variant-alternates:normal;font-variant-caps:normal;font-variant-east-asian:normal;font-variant-ligatures:normal;font-variant-numeric:normal;font-variant-position:normal;font-variation-settings:normal;inline-size:0;isolation:auto;mix-blend-mode:normal;paint-order:markers stroke fill;shape-margin:0;shape-padding:0;text-decoration-color:#000000;text-decoration-line:none;text-decoration-style:solid;text-indent:0;text-orientation:mixed;text-transform:none;white-space:normal"/>
  <g transform="translate(1.1887 .24681)" fill="none" stroke="#000" stroke-width="1.523">
    <path d="m15.654 2.2845v12.872"/>
    <path d="m1.3416 15.156 2e-7 -12.872"/>
  </g>
  <g transform="translate(1.1887 .24681)" shape-rendering="auto" stroke="#fdfdfd" stroke-linejoin="bevel" stroke-width=".4">
    <g transform="matrix(1.25,0,0,1.25,-4.0832,-1.1809)" style="paint-order:markers stroke fill">
      <path d="m4.3398 0.94727c-0.99373 0-1.8242 0.83049-1.8242 1.8242 0 0.99373 0.83049 1.8262 1.8242 1.8262 0.99373 0 1.8242-0.83244 1.8242-1.8262 0-0.99373-0.83049-1.8242-1.8242-1.8242zm0 1.3086c0.27085 0 0.51562 0.24477 0.51562 0.51562s-0.24477 0.51562-0.51562 0.51562-0.51563-0.24477-0.51562-0.51562c0-0.27085 0.24477-0.51562 0.51562-0.51562z" color="#000000" color-rendering="auto" dominant-baseline="auto" image-rendering="auto" solid-color="#000000" stop-color="#000000" stroke="#fff" stroke-opacity=".49596" stroke-width=".16722" style="font-feature-settings:normal;font-variant-alternates:normal;font-variant-caps:normal;font-variant-east-asian:normal;font-variant-ligatures:normal;font-variant-numeric:normal;font-variant-position:normal;font-variation-settings:normal;inline-size:0;isolation:auto;mix-blend-mode:normal;paint-order:markers stroke fill;shape-margin:0;shape-padding:0;text-decoration-color:#000000;text-decoration-line:none;text-decoration-style:solid;text-indent:0;text-orientation:mixed;text-transform:none;white-space:normal"/>
      <path d="m4.9943 2.7723c0 0.36144-0.29301 0.65445-0.65445 0.65445s-0.65445-0.29301-0.65445-0.65445 0.29301-0.65445 0.65445-0.65445 0.65445 0.29301 0.65445 0.65445z" color="#000000" color-rendering="auto" dominant-baseline="auto" fill="#fff" image-rendering="auto" solid-color="#000000" stop-color="#000000" style="font-feature-settings:normal;font-variant-alternates:normal;font-variant-caps:normal;font-variant-east-asian:normal;font-variant-ligatures:normal;font-variant-numeric:normal;font-variant-position:normal;font-variation-settings:normal;inline-size:0;isolation:auto;mix-blend-mode:normal;paint-order:markers stroke fill;shape-margin:0;shape-padding:0;text-decoration-color:#000000;text-decoration-line:none;text-decoration-style:solid;text-indent:0;text-orientation:mixed;text-transform:none;white-space:normal"/>
    </g>
    <g transform="matrix(1.25,0,0,1.25,-7.6613,-1.1809)" style="paint-order:markers stroke fill">
      <path d="m18.652 0.94727c-0.99378 1e-8 -1.8242 0.83044-1.8242 1.8242 0 0.99378 0.83044 1.8262 1.8242 1.8262 0.99378 0 1.8242-0.83239 1.8242-1.8262 1e-6 -0.99378-0.83044-1.8242-1.8242-1.8242zm0 1.3086c0.27086 0 0.51562 0.24476 0.51562 0.51562s-0.24476 0.51562-0.51562 0.51562-0.51562-0.24476-0.51562-0.51562 0.24476-0.51562 0.51562-0.51562z" color="#000000" color-rendering="auto" dominant-baseline="auto" image-rendering="auto" solid-color="#000000" stop-color="#000000" stroke="#fff" stroke-opacity=".49596" stroke-width=".16722" style="font-feature-settings:normal;font-variant-alternates:normal;font-variant-caps:normal;font-variant-east-asian:normal;font-variant-ligatures:normal;font-variant-numeric:normal;font-variant-position:normal;font-variation-settings:normal;inline-size:0;isolation:auto;mix-blend-mode:normal;paint-order:markers stroke fill;shape-margin:0;shape-padding:0;text-decoration-color:#000000;text-decoration-line:none;text-decoration-style:solid;text-indent:0;text-orientation:mixed;text-transform:none;white-space:normal"/>
      <path d="m19.307 2.7723c0 0.36146-0.29302 0.65448-0.65448 0.65448s-0.65448-0.29302-0.65448-0.65448 0.29302-0.65448 0.65448-0.65448 0.65448 0.29302 0.65448 0.65448z" color="#000000" color-rendering="auto" dominant-baseline="auto" fill="#fff" image-rendering="auto" solid-color="#000000" stop-color="#000000" style="font-feature-settings:normal;font-variant-alternates:normal;font-variant-caps:normal;font-variant-east-asian:normal;font-variant-ligatures:normal;font-variant-numeric:normal;font-variant-position:normal;font-variation-settings:normal;inline-size:0;isolation:auto;mix-blend-mode:normal;paint-order:markers stroke fill;shape-margin:0;shape-padding:0;text-decoration-color:#000000;text-decoration-line:none;text-decoration-style:solid;text-indent:0;text-orientation:mixed;text-transform:none;white-space:normal"/>
    </g>
  </g>
  <g transform="translate(1.1887 .24681)" fill="#fff" stroke="#000" stroke-width="2.9249">
    <rect x=".46017" y="14.275" width="1.7629" height="1.7629" style="paint-order:stroke fill markers"/>
    <rect x="14.773" y="14.275" width="1.7629" height="1.7629" style="paint-order:stroke fill markers"/>
  </g>
</svg>
