<?xml version="1.0" encoding="UTF-8"?>
<svg id="icon" version="1.1" viewBox="0 0 64 64" xmlns="http://www.w3.org/2000/svg">
  <defs>
    <style>.cls-1 {
        fill: none;
      }</style>
  </defs>
  <g stroke-width="2">
    <path d="m58 6.3a8.2 8.2 0 0 0-11 0l-38 38a14 14 0 0 0-4.1 9.9v5.5h5.5a14 14 0 0 0 9.9-4.1l38-38a8 8 0 0 0 0-11zm-36 30 5.7 5.7-4.2 4.2-5.7-5.7zm-5.2 17a9.9 9.9 0 0 1-7.1 2.9h-1.5v-1.5a9.9 9.9 0 0 1 2.9-7.1l3.8-3.8 5.7 5.7zm38-38-25 25-5.7-5.7 25-25a4.1 4.1 0 0 1 5.7 0 4 4 0 0 1 0 5.7z"/>
    <path d="m13 30a7 7 0 0 1-5-12l7-7a3 3 0 0 0 0-4.2 3.1 3.1 0 0 0-4.2 0l-4 4-2.8-2.8 4-4a7.2 7.2 0 0 1 9.9 0 7 7 0 0 1 0 9.9l-7 7a3 3 0 0 0 0 4.2 3.1 3.1 0 0 0 4.2 0l8-8 2.8 2.8-8.1 8a7 7 0 0 1-4.9 2z"/>
    <rect id="_Transparent_Rectangle" class="cls-1" width="64" height="64" data-name=" Transparent Rectangle"/>
  </g>
</svg>
