<?xml version="1.0" encoding="UTF-8"?>
<svg width="47pt" height="81pt" version="1.1" viewBox="0 0 47 81" xmlns="http://www.w3.org/2000/svg">
  <path d="m42 9.6c2-0.8 4.7-3.4 4.7-4.9 0-0.9-0.8-1.1-1.6-1.1h-9.3c-1.5 0-2.5-0.1-5.1-1.2-3-1.3-6.2-2.2-11-2.2s-12 1.3-17 9c-0.3 0.5-1.3 1.9-1.3 2.6s0.3 0.9 0.8 0.9 1.3-0.7 2.3-1.4c5.3-3.5 10-4.1 12-4.1 3.6 0 6 0.8 9 2 2.6 1 5.6 1.1 8.7 1.1 2.5 0 5.5 0 7.6-0.7m-38 5.4c-2 1.8-2.3 4.5-2.3 6.7 0 12 8.3 15 16 15 8 0 11-4.7 11-6.6 0-0.6-0.3-1-0.8-1-1.3 0-1.9 1.3-5.9 1.3-4.2 0-12-0.6-12-12 0-2.5 0.3-4 0.3-5.1s-0.6-1.5-1.3-1.5c-1.5 0-4.4 1.9-5.4 2.8m31-2.2c-4.1 0-4.3 0.6-4.3 1.1 0 0.2 0.1 0.3 0.3 0.6 1.6 2.3 2.1 6.9 2.1 8.5 0 7.3-3.4 9.6-3.4 11 0 0.7 0.4 0.9 0.9 0.9 1.4 0 5.3-3.2 6.9-5.6 2.3-3.5 3.1-6.5 3.1-10 0-0.9-0.1-3.5-1.2-4.9-0.5-0.6-1.2-1.2-4.4-1.2m-1.3 65c-0.3 0.2-0.8 0.6-0.8 1.1s0.4 0.8 1 0.8c4.9-0.3 12-6.4 12-15 0-16-13-17-27-17-7.9 0-12-0.3-12-3.8 0-2.1 1.1-3.4 1.1-4.3 0-0.6-0.2-0.9-0.8-0.9-1.6 0-6.3 3.1-6.3 8.5 0 8.7 8.8 8.8 20 8.9 11 0.1 18 2.9 18 13 0 3.6-1.7 7.5-5.2 9.9m-33-8.9c0 9 9.7 12 16 12 12 0 17-5.9 17-8.3 0-0.5-0.3-0.9-0.9-0.9-0.4 0-4.9 2.2-11 2.2-8.9 0-15-3.6-15-9.7 0-4.2 0.9-6.1 0.9-7.1 0-0.5-0.2-1-0.9-1-2 0-7.3 4.9-7.3 12" fill="#262626" stroke="#909090" stroke-miterlimit="10" stroke-width=".36" style="paint-order:markers stroke fill"/>
</svg>
