<?xml version="1.0" encoding="UTF-8"?>
<svg width="64" height="64" version="1.1" viewBox="0 0 16.933 16.933" xmlns="http://www.w3.org/2000/svg"><path d="m3.5161 5.2665-0.04209-2.2299s0.061382-0.40239 0.23142-0.47161c0.40138-0.19806 0.80395-0.28502 0.80395-0.28502l0.098049-0.025123s0.42919-1.2518 0.94594-1.4599c0.48763-0.18963 1.0231-0.13696 1.0231-0.13696v0s0.3241-0.025324 0.78485 0.46899c0.26384 0.28306 0.82824-0.054965 1.3946-0.00418 0.33035 0.029624 0.76073 0.28922 0.76073 0.28922s0.89393 0.098566 1.5611 1.1089c0.47744 0.32706 0.54309 0.48054 0.54309 0.48054l0.14979 0.42511 0.31991 3.0338-0.12866 4.3873 2.4563 2.4783-6.4116 2.794-0.76772-3.1778-0.055221 0.27906-4.2489-3.532-0.69229-2.6404 1.1928-1.6942z" fill="#fff" stroke="#000" stroke-linecap="square" stroke-width=".83586" style="paint-order:normal"/><path d="m10.752 2.809 0.45586 3.1267-0.24002 4.6598 0.77041 0.62917 0.21258-4.5452-0.57769-3.4108z" fill="#a9a9a9" stroke-width=".071663"/><path d="m8.043 14.389 4.5475-2.2317 1.1582 1.0648-5.3952 2.5371z" fill="#a9a9a9" stroke-width=".064142"/><g fill="none" stroke="#000" stroke-width=".63049"><path d="m4.7774 2.3244s1.0513 0.68656 1.269 2.1759"/><path d="m6.8446 0.89447s1.087 1.1988 1.0097 2.5218"/><path d="m3.5161 5.2665s0.64557 0.01103 0.96057 0.66082c0.16855 0.3477 0.064701 0.41905 0.095806 0.68749 0.024306 0.20966 0.20983 0.21103 0.30626 0.73556" stroke-linecap="square"/><path d="m9.2461 1.4021s1.3071 1.4446 0.9363 3.6491"/></g></svg>
