<?xml version="1.0" encoding="UTF-8"?>
<svg width="20" height="20" version="1.1" viewBox="0 0 5.2917 5.2917" xmlns="http://www.w3.org/2000/svg"><path d="m3.1717 1.5832-0.19525-1.1238m-0.35086 1.2846-0.083957-1.6089m-0.5452 1.8724 0.0094829-1.6772m-0.60207 2.1543-0.020001-0.59752m-0.00115-0.039254 0.054966-1.2724s0.028445-0.086698 0.23086-0.18925c0.11791-0.058181 0.30725-0.073087 0.30725-0.073087l0.028802-0.007382s0.06863-0.11913 0.22043-0.18028c0.14324-0.055705 0.30052-0.040233 0.30052-0.040233v0s0.095204-0.0074387 0.23055 0.13777c0.077503 0.083149 0.20771 0.19069 0.20771 0.19069l0.025269 0.011011s0.19559 0.090908 0.27591 0.14592c0.14025 0.096075 0.15953 0.14116 0.15953 0.14116l0.026601 0.11094 0.28657 1.551-0.037793 1.2888 0.72153 0.728-1.8834 0.82074-0.22552-0.93348-0.016221 0.081974-1.2481-1.0375-0.039586-0.95084 0.35037-0.49767z" fill="#fff" stroke="#000" stroke-linecap="square" stroke-width=".11324"/><g fill="#a9a9a9" stroke-width=".019086"><path d="m3.2388 0.61504 0.27166 1.5451-0.060184 1.3182 0.19318 0.17798 0.053304-1.2857-0.30221-1.6255z"/><path d="m2.5263 4.9313 1.6833-0.68254 0.11873 0.13013-1.7545 0.7559z"/></g></svg>
