<?xml version="1.0" encoding="UTF-8"?>
<svg width="64" height="64" version="1.1" viewBox="0 0 16.933 16.933" xmlns="http://www.w3.org/2000/svg"><g transform="translate(-2.9982 -.48783)" stroke="#000"><path d="m11.506 0.98637 0.68275-0.032978 4.4978 8.9459s-2.0826 2.0836-2.3005 3.2647c-0.21791 1.1811-0.21791 0.95186-0.21791 0.95186l-5.4288 0.07106s0.057267-1.967-2.4817-4.289l4.7831-8.8117z" fill="#fff" stroke-width=".28083px"/><path d="m8.9371 14.087h4.9777s0.50971-1.6406 1.1228-2.5738c0.61309-0.93322 1.3222-1.489 1.3222-1.489l-3.871-7.6227 0.08123-0.35177-0.63308-0.68722-0.23313 0.90575 0.20127 0.21954-0.04424 5.1106s2.4475 1.6389 0.35658 3.2869l-1.5925 0.01092s-1.9675-1.8288 0.50422-3.3052l0.07568-5.0843 0.18961-0.21889-0.18089-0.9267-0.66892 0.72929 0.02149 0.35017-4.0289 7.3583s2.6552 2.4286 2.3999 4.2882zm3.3003-13.382 4.8374 9.2929s-1.4968 1.284-2.2617 2.8244c-0.16295 0.32814-0.2927 0.66791-0.36769 1.0094l0.01423 0.2552h1.633v0.47505h-1.633v2.6425h-3.9192v-2.6425h-1.6033v2.6425h-0.56413v-2.6425h-1.4845v-0.47505h1.4845s0.2557-1.1013-1.0945-2.5774c-0.58715-0.6419-1.4255-1.6507-1.4255-1.6507l4.9962-9.1474z" stroke-linejoin="bevel" stroke-width=".43836" style="paint-order:stroke fill markers"/><path d="m6.6459 14.397h9.7112" fill="none" stroke-width="1.4837"/></g></svg>
