<?xml version="1.0" encoding="UTF-8"?>
<svg width="56.312" height="54.672" version="1.1" viewBox="0 0 14.899 14.465" xmlns="http://www.w3.org/2000/svg"><g transform="translate(-58.514 -110.57)"><path d="m62.559 110.57-0.12675 0.12714v12.527l0.12675 0.12714h10.146l0.12714-0.12714 0.58214-11.12-0.12714-0.12714zm0.12714 0.25429 10.474 1.4063-0.58213 10.867h-9.8917z" color="#000000" color-rendering="auto" dominant-baseline="auto" image-rendering="auto" shape-rendering="auto" solid-color="#000000" stop-color="#000000" style="font-feature-settings:normal;font-variant-alternates:normal;font-variant-caps:normal;font-variant-east-asian:normal;font-variant-ligatures:normal;font-variant-numeric:normal;font-variant-position:normal;font-variation-settings:normal;inline-size:0;isolation:auto;mix-blend-mode:normal;paint-order:fill markers stroke;shape-margin:0;shape-padding:0;text-decoration-color:#000000;text-decoration-line:none;text-decoration-style:solid;text-indent:0;text-orientation:mixed;text-transform:none;white-space:normal"/><path d="m62.686 110.82 10.474 1.4063-0.58214 10.867h-9.8917z" fill="#fff" stroke="#000" stroke-linecap="square" stroke-linejoin="bevel" stroke-width=".404" style="paint-order:fill markers stroke"/><ellipse cx="63.439" cy="120" rx="4.8228" ry="4.933" fill="#fff" stroke="#000" stroke-linecap="square" stroke-linejoin="bevel" stroke-width=".404" style="paint-order:fill markers stroke"/><path d="m60.281 123.58s4.7704 1.3773 6.2207-1.8316c1.2557-0.011 1.12 0.50812 0.98504 0.77537-0.16446 0.3258-1.9129 2.3513-4.0224 2.2592-1.3142-0.0574-2.0319-0.22164-3.1833-1.203z" fill="#999"/><path d="m73.006 112.36h0.03638l-0.58876 10.522-6.5021 0.0311 0.40226-1.2141 5.0293 0.0649 0.53033-9.5159z" fill="#999"/></g></svg>
