<?xml version="1.0" encoding="UTF-8" standalone="no"?>
<svg
   xmlns:dc="http://purl.org/dc/elements/1.1/"
   xmlns:cc="http://creativecommons.org/ns#"
   xmlns:rdf="http://www.w3.org/1999/02/22-rdf-syntax-ns#"
   xmlns:svg="http://www.w3.org/2000/svg"
   xmlns="http://www.w3.org/2000/svg"
   xmlns:sodipodi="http://sodipodi.sourceforge.net/DTD/sodipodi-0.dtd"
   xmlns:inkscape="http://www.inkscape.org/namespaces/inkscape"
   width="64"
   height="64"
   version="1.1"
   viewBox="0 0 64 64"
   id="svg935"
   sodipodi:docname="zoom-out-icon.svg"
   inkscape:version="1.0.2 (e86c870879, 2021-01-15)">
  <metadata
     id="metadata941">
    <rdf:RDF>
      <cc:Work
         rdf:about="">
        <dc:format>image/svg+xml</dc:format>
        <dc:type
           rdf:resource="http://purl.org/dc/dcmitype/StillImage" />
        <dc:title></dc:title>
      </cc:Work>
    </rdf:RDF>
  </metadata>
  <defs
     id="defs939" />
  <sodipodi:namedview
     pagecolor="#ffffff"
     bordercolor="#666666"
     borderopacity="1"
     objecttolerance="10"
     gridtolerance="10"
     guidetolerance="10"
     inkscape:pageopacity="0"
     inkscape:pageshadow="2"
     inkscape:window-width="1920"
     inkscape:window-height="1080"
     id="namedview937"
     showgrid="false"
     inkscape:zoom="14.1875"
     inkscape:cx="32"
     inkscape:cy="32"
     inkscape:window-x="0"
     inkscape:window-y="0"
     inkscape:window-maximized="1"
     inkscape:current-layer="svg935" />
  <circle
     cx="23.979956"
     cy="24.146025"
     r="19.872011"
     fill="#ffffff"
     style="stroke-width:3.77171;paint-order:stroke fill markers"
     id="circle917" />
  <path
     d="m 10.662802,22.120994 c 1.486619,-5.963828 6.692522,-11.046208 12.725373,-11.97254 1.976225,-0.3035475 6.188999,0.103899 6.188999,0.103899 0,0 -6.828304,3.506635 -10.845553,7.388781 -4.040633,3.904475 -7.636959,10.517414 -7.636959,10.517414 0,0 -0.875564,-4.256752 -0.431672,-6.037376 z"
     fill="#a9a9a9"
     stroke-width="0.24541"
     id="path919" />
  <g
     transform="matrix(3.5996449,0,0,3.5996449,1.9969958,1.8391873)"
     shape-rendering="auto"
     id="g925">
    <path
       d="m 6.1358,-0.042965 c -3.3902,0 -6.1508,2.7607 -6.1508,6.1508 0,3.3901 2.7606,6.1508 6.1508,6.1508 1.3033,0 2.5137,-0.40843 3.5099,-1.103 l 5.7814,5.7839 1.3869,-1.4739 -5.6793,-5.7786 c 0.72465,-1.0091 1.1519,-2.2454 1.1519,-3.579 0,-3.3902 -2.7606,-6.1508 -6.1508,-6.1508 z m 0,1.0864 c 2.8044,0 5.0645,2.26 5.0645,5.0644 0,2.8044 -2.26,5.0644 -5.0645,5.0644 -2.8044,0 -5.0644,-2.26 -5.0644,-5.0644 0,-2.8044 2.26,-5.0644 5.0644,-5.0644 z"
       color="#000000"
       color-rendering="auto"
       dominant-baseline="auto"
       image-rendering="auto"
       solid-color="#000000"
       stop-color="#000000"
       style="font-variant-ligatures:normal;font-variant-position:normal;font-variant-caps:normal;font-variant-numeric:normal;font-variant-alternates:normal;font-variant-east-asian:normal;font-feature-settings:normal;font-variation-settings:normal;text-indent:0;text-decoration:none;text-decoration-line:none;text-decoration-style:solid;text-decoration-color:#000000;text-transform:none;text-orientation:mixed;white-space:normal;shape-padding:0;shape-margin:0;inline-size:0;isolation:auto;mix-blend-mode:normal;paint-order:markers fill stroke"
       id="path921" />
    <path
       d="m 6.1367,-0.51367 c -3.6457,0 -6.623,2.9754 -6.623,6.6211 -10e-9,3.6457 2.9773,6.6211 6.623,6.6211 1.256,0 2.4075,-0.39467 3.4102,-1.0059 l 5.5469,5.5488 0.67578,-0.0098 1.3867,-1.4727 -0.0059,-0.6543 -5.4473,-5.541 c 0.6402,-1.019 1.0547,-2.1987 1.0547,-3.4863 0,-3.6457 -2.9754,-6.6211 -6.6211,-6.6211 z m 0,0.94141 c 3.1346,0 5.6797,2.545 5.6797,5.6797 0,1.2331 -0.39493,2.3724 -1.0645,3.3047 l 0.04687,0.60547 5.3613,5.4551 -0.74414,0.79102 -5.4375,-5.4414 -0.60156,-0.05274 c -0.92045,0.64179 -2.0352,1.0176 -3.2402,1.0176 -3.1347,0 -5.6816,-2.5451 -5.6816,-5.6797 0,-3.1346 2.547,-5.6797 5.6816,-5.6797 z m 0,0.14453 c -3.0573,1e-8 -5.5352,2.4779 -5.5352,5.5352 0,3.0573 2.4778,5.5352 5.5352,5.5352 3.0573,0 5.5352,-2.4779 5.5352,-5.5352 0,-3.0573 -2.4778,-5.5352 -5.5352,-5.5352 z m 0,0.94141 c 2.5516,0 4.5938,2.0422 4.5938,4.5938 0,2.5515 -2.0422,4.5938 -4.5938,4.5938 -2.5516,0 -4.5938,-2.0422 -4.5938,-4.5938 0,-2.5515 2.0422,-4.5938 4.5938,-4.5938 z"
       color="#000000"
       color-rendering="auto"
       dominant-baseline="auto"
       image-rendering="auto"
       solid-color="#000000"
       stop-color="#000000"
       style="font-variant-ligatures:normal;font-variant-position:normal;font-variant-caps:normal;font-variant-numeric:normal;font-variant-alternates:normal;font-variant-east-asian:normal;font-feature-settings:normal;font-variation-settings:normal;text-indent:0;text-decoration:none;text-decoration-line:none;text-decoration-style:solid;text-decoration-color:#000000;text-transform:none;text-orientation:mixed;white-space:normal;shape-padding:0;shape-margin:0;inline-size:0;isolation:auto;mix-blend-mode:normal;paint-order:markers fill stroke"
       id="path923" />
  </g>
  <g
     id="g933"
     transform="matrix(3.7717103,0,0,3.7717103,0.08805774,-0.08117894)">
    <path
       d="m 9.3176,11.887 0.45745,-0.56394 5.6895,5.6415 -0.92588,0.0033 z"
       fill="#a9a9a9"
       id="path927" />
    <rect
       x="1.4345"
       y="12.375"
       width="8.0207996"
       height="3.6761"
       fill="#ffffff"
       style="paint-order:stroke fill markers"
       id="rect929" />
    <rect
       x="2.2632999"
       y="12.914"
       width="6.3912001"
       height="2.5985999"
       style="paint-order:stroke fill markers"
       id="rect931" />
  </g>
</svg>
