<?xml version="1.0" encoding="UTF-8"?>
<svg width="64" height="64" version="1.1" viewBox="0 0 16.933 16.933" xmlns="http://www.w3.org/2000/svg"><circle cx="6.3345" cy="6.4234" r="5.2687" fill="#fff" style="paint-order:stroke fill markers"/><path d="m2.8037 5.8865c0.39415-1.5812 1.7744-2.9287 3.3739-3.1743 0.52396-0.08048 1.6409 0.027547 1.6409 0.027547s-1.8104 0.92972-2.8755 1.959c-1.0713 1.0352-2.0248 2.7885-2.0248 2.7885s-0.23214-1.1286-0.11445-1.6007z" fill="#a9a9a9" stroke-width=".065066"/><g transform="matrix(.95438 0 0 .95438 .50612 .50915)" shape-rendering="auto"><path d="m6.1358-0.042965c-3.3902 0-6.1508 2.7607-6.1508 6.1508 0 3.3901 2.7606 6.1508 6.1508 6.1508 1.3033 0 2.5137-0.40843 3.5099-1.103l5.7814 5.7839 1.3869-1.4739-5.6793-5.7786c0.72465-1.0091 1.1519-2.2454 1.1519-3.579 0-3.3902-2.7606-6.1508-6.1508-6.1508zm0 1.0864c2.8044 0 5.0645 2.26 5.0645 5.0644 0 2.8044-2.26 5.0644-5.0645 5.0644-2.8044 0-5.0644-2.26-5.0644-5.0644 0-2.8044 2.26-5.0644 5.0644-5.0644z" color="#000000" color-rendering="auto" dominant-baseline="auto" image-rendering="auto" solid-color="#000000" stop-color="#000000" style="font-feature-settings:normal;font-variant-alternates:normal;font-variant-caps:normal;font-variant-east-asian:normal;font-variant-ligatures:normal;font-variant-numeric:normal;font-variant-position:normal;font-variation-settings:normal;inline-size:0;isolation:auto;mix-blend-mode:normal;paint-order:markers fill stroke;shape-margin:0;shape-padding:0;text-decoration-color:#000000;text-decoration-line:none;text-decoration-style:solid;text-indent:0;text-orientation:mixed;text-transform:none;white-space:normal"/><path d="m6.1367-0.51367c-3.6457 0-6.623 2.9754-6.623 6.6211-1e-8 3.6457 2.9773 6.6211 6.623 6.6211 1.256 0 2.4075-0.39467 3.4102-1.0059l5.5469 5.5488 0.67578-0.0098 1.3867-1.4727-0.0059-0.6543-5.4473-5.541c0.6402-1.019 1.0547-2.1987 1.0547-3.4863 0-3.6457-2.9754-6.6211-6.6211-6.6211zm0 0.94141c3.1346 0 5.6797 2.545 5.6797 5.6797 0 1.2331-0.39493 2.3724-1.0645 3.3047l0.04687 0.60547 5.3613 5.4551-0.74414 0.79102-5.4375-5.4414-0.60156-0.05274c-0.92045 0.64179-2.0352 1.0176-3.2402 1.0176-3.1347 0-5.6816-2.5451-5.6816-5.6797 0-3.1346 2.547-5.6797 5.6816-5.6797zm0 0.14453c-3.0573 1e-8 -5.5352 2.4779-5.5352 5.5352 0 3.0573 2.4778 5.5352 5.5352 5.5352 3.0573 0 5.5352-2.4779 5.5352-5.5352 0-3.0573-2.4778-5.5352-5.5352-5.5352zm0 0.94141c2.5516 0 4.5938 2.0422 4.5938 4.5938 0 2.5515-2.0422 4.5938-4.5938 4.5938-2.5516 0-4.5938-2.0422-4.5938-4.5938 0-2.5515 2.0422-4.5938 4.5938-4.5938z" color="#000000" color-rendering="auto" dominant-baseline="auto" image-rendering="auto" solid-color="#000000" stop-color="#000000" style="font-feature-settings:normal;font-variant-alternates:normal;font-variant-caps:normal;font-variant-east-asian:normal;font-variant-ligatures:normal;font-variant-numeric:normal;font-variant-position:normal;font-variation-settings:normal;inline-size:0;isolation:auto;mix-blend-mode:normal;paint-order:markers fill stroke;shape-margin:0;shape-padding:0;text-decoration-color:#000000;text-decoration-line:none;text-decoration-style:solid;text-indent:0;text-orientation:mixed;text-transform:none;white-space:normal"/></g><g><path d="m9.3176 11.887 0.45745-0.56394 5.6895 5.6415-0.92588 0.0033z" fill="#a9a9a9"/><rect x="1.4345" y="12.375" width="8.0208" height="3.6761" fill="#fff" style="paint-order:stroke fill markers"/><rect x="2.2633" y="12.914" width="6.3912" height="2.5986" style="paint-order:stroke fill markers"/></g></svg>
