<?xml version="1.0" encoding="UTF-8"?>
<svg version="1.1" viewBox="0 0 64 64" xmlns="http://www.w3.org/2000/svg">
  <g>
    <g transform="matrix(-.22534 0 0 .22534 25.802 26.024)" stroke="#000">
      <path d="m-28.352-74.545c-18.89 0-37.165 6.0558-49.594 18.484-15.583 15.583-16.6 46.61-16.475 68.934 0.02418 4.3176 0.05903 3.4556 0.08031 7.6251-0.07841 1.9928-0.12109 3.9993-0.12109 6.0215 1e-6 1.6722 0.03024 3.334 0.08398 4.9863-0.14503 22.781 0.62341 46.152 12.838 66.877 12.397 21.035 32.952 29.201 53.188 29.201 0.25794 0 0.51423-9e-3 0.77148-0.0137 0.25726 4e-3 0.51355 0.0137 0.77148 0.0137 20.235 0 40.788-8.1659 53.186-29.201 12.214-20.725 12.983-44.096 12.838-66.877 0.05375-1.6523 0.08398-3.3141 0.08398-4.9863 0-2.0321-0.04192-4.0483-0.12109-6.0508 0.13829-26.845 2.0488-58.088-16.393-76.529-12.429-12.429-30.704-18.484-49.594-18.484-0.25788 0-0.51428 0.0094-0.77148 0.01367-0.2572-0.0043-0.5136-0.01367-0.77148-0.01367z" fill="#fff" stroke-linecap="square" stroke-width="28.583" style="paint-order:markers stroke fill"/>
      <g fill="none" stroke-width="14.291">
        <path d="m-100.02 12.873s34.696-23.661 58.2-23.124"/>
        <path d="m44.988 12.873s-35.229-23.661-58.733-23.124"/>
        <path d="m-53.109-8.252v-66.25"/>
        <path d="m-42.109-10.252h29.242z"/>
        <path d="m-2.2183-8.2511v-66.25"/>
      </g>
    </g>
  </g>
  <g>
    <path d="m24.459 11.419-0.11727 11.006-7.0078 3.0452s-0.43747-11.326 7.1251-14.051z" fill="#0c0c0c"/>
    <g transform="matrix(1.3779 0 0 1.3779 -112.91 11.747)">
      <path id="whitebg" d="m110.14 12.366c-0.51663 0.0019-1.0237 0.13982-1.47 0.4-0.54796-0.86911-1.5026-1.3974-2.53-1.4-0.51663 0.0019-1.0237 0.13982-1.47 0.4-0.74918-1.1788-2.2128-1.6847-3.53-1.22v-5.18c0-4-6-4-6 0v11.1l-2.23-1.52c-0.51121-0.38071-1.1326-0.58434-1.77-0.58-2.6822-0.0066-4.0244 3.2412-2.12 5.13l8 7.3c1.1326 1.0137 2.6 1.5729 4.12 1.57h5c3.866 0 7-3.134 7-7v-6c0-1.6569-1.3432-3-3-3z" fill="#fff"/>
      <path id="blackfg" d="m98.191 2.6855c-1.573-0.080524-2.9235 1.4336-2.7344 2.9855v11.397c-1.1557-0.71709-2.1956-1.6428-3.4219-2.2344-1.5515-0.60468-3.437 0.56574-3.5684 2.2285-0.1636 1.058 0.49628 2.1364 1.3722 2.7521 2.6279 2.3636 5.1915 4.8034 7.8582 7.121 1.3039 0.99432 2.9751 1.2114 4.5414 1.1113 1.738-0.06393 3.4864 0.13824 5.1715-0.12109 2.7577-0.48601 5.0042-2.9013 5.3457-5.6191 0.15194-2.2005 0.0206-4.4982 0.0645-6.7414 0.14298-1.5068-1.1782-2.9292-2.6934-2.8836-0.48207-0.0085-1.1085 0.19582-1.5547 0.50586-0.66055-1.3304-2.4589-1.9462-3.7461-1.1465-0.40296 0.35839-0.50584-0.43738-0.84179-0.61133-0.84326-0.78915-2.0089-0.92939-3.0304-0.48832-0.30825-0.16519-0.0461-1.1242-0.13363-1.5964-0.056-1.5371 0.1092-3.0943-0.0762-4.6203-0.2548-1.1652-1.4152-2.0511-2.5528-2.0391zm-0.10938 1.3633c0.9037-0.06724 1.547 0.87366 1.375 1.7164v10.282c0.49914-0.12195 1.5991 0.35696 1.3633-0.5 0.10062-0.93289-0.2116-1.9499 0.17383-2.832 0.4825-0.96068 2.0547-0.83638 2.3789 0.18945 0.21041 1.0243 0.0183 2.1003 0.084 3.1426 0.49914-0.12195 1.5992 0.35696 1.3633-0.5-0.0101-0.80552-0.17772-1.9325 0.72071-2.3535 0.90367-0.5165 2.0872 0.35931 1.916 1.3719 0.14878 0.47844-0.36476 1.6192 0.4 1.4816 0.61178 0.05698 1.1982 0.09337 0.96524-0.69727-0.0423-1.0741 1.3973-1.7273 2.1738-0.98242 0.79433 0.70397 0.34158 1.8835 0.46094 2.798-0.0619 1.7314 0.12598 3.482-0.0957 5.202-0.42956 2.5191-2.8759 4.4532-5.4227 4.3164-1.877-0.04992-3.7679 0.0981-5.6368-0.06972-1.8569-0.27671-2.9942-1.925-4.3476-3.0433-1.9565-1.8272-3.9792-3.5929-5.8957-5.4573-0.67413-0.86282 0.16706-2.2474 1.2422-2.0547 0.9092 0.21487 1.5587 1.0015 2.3632 1.4409 1.0521 0.72088 2.1042 1.4418 3.1563 2.1626 0.01593-4.8425-0.03166-9.6895 0.02344-14.529 0.09737-0.59607 0.63585-1.0636 1.2383-1.084z"/>
    </g>
  </g>
</svg>
